<?xml version="1.0"?>
<svg xmlns="http://www.w3.org/2000/svg" xmlns:xlink="http://www.w3.org/1999/xlink" viewBox="0 0 316.800000 172.000000" width="158.400000mm" height="86.000000mm" version="1.1">
<a xlink:href="diffusor-0x7fa64956b500.svg">
<rect x="1.000000" y="1.000000" width="315.800000" height="171.000000" rx="0" ry="0" style="stroke:none;fill:#cccccc;"/>
<rect x="0.000000" y="0.000000" width="315.800000" height="171.000000" rx="0" ry="0" style="stroke:none;fill:#ffffff;"/>
</a>
<text x="10.000000" y="7.000000" font-family="Arial" font-size="7"></text>
<rect x="49.000000" y="95.000000" width="24.000000" height="24.000000" rx="0" ry="0" style="stroke:none;fill:#cccccc;"/>
<rect x="48.000000" y="94.000000" width="24.000000" height="24.000000" rx="0" ry="0" style="stroke:none;fill:#4B71A1;"/>
<text x="60.000000" y="108.000000" font-family="Arial" font-size="7" text-anchor="middle" fill="#FFFFFF">+</text>
<circle cx="50.000000" cy="96.000000" r="1"/>
<line x1="45.000000" y1="101.000000" x2="48.000000" y2="102.000000"  transform="rotate(0.000000,48.000000,102.000000)" style="stroke: black; stroke-width:0.25;"/>
<line x1="45.000000" y1="103.000000" x2="48.000000" y2="102.000000"  transform="rotate(0.000000,48.000000,102.000000)" style="stroke: black; stroke-width:0.25;"/>
<line x1="45.000000" y1="109.000000" x2="48.000000" y2="110.000000"  transform="rotate(0.000000,48.000000,110.000000)" style="stroke: black; stroke-width:0.25;"/>
<line x1="45.000000" y1="111.000000" x2="48.000000" y2="110.000000"  transform="rotate(0.000000,48.000000,110.000000)" style="stroke: black; stroke-width:0.25;"/>
<a xlink:href="fdelay-0x7fa64956ae60.svg">
<rect x="116.200000" y="65.000000" width="77.400000" height="24.000000" rx="0" ry="0" style="stroke:none;fill:#cccccc;"/>
<rect x="115.200000" y="64.000000" width="77.400000" height="24.000000" rx="0" ry="0" style="stroke:none;fill:#003366;"/>
</a>
<a xlink:href="fdelay-0x7fa64956ae60.svg">
<text x="153.900000" y="78.000000" font-family="Arial" font-size="7" text-anchor="middle" fill="#FFFFFF">fdelay(5000)(1999)</text>
</a>
<circle cx="117.200000" cy="66.000000" r="1"/>
<line x1="112.200000" y1="75.000000" x2="115.200000" y2="76.000000"  transform="rotate(0.000000,115.200000,76.000000)" style="stroke: black; stroke-width:0.25;"/>
<line x1="112.200000" y1="77.000000" x2="115.200000" y2="76.000000"  transform="rotate(0.000000,115.200000,76.000000)" style="stroke: black; stroke-width:0.25;"/>
<rect x="122.000000" y="115.000000" width="25.800000" height="24.000000" rx="0" ry="0" style="stroke:none;fill:#cccccc;"/>
<rect x="121.000000" y="114.000000" width="25.800000" height="24.000000" rx="0" ry="0" style="stroke:none;fill:#f44800;"/>
<text x="133.900000" y="128.000000" font-family="Arial" font-size="7" text-anchor="middle" fill="#FFFFFF">0.54</text>
<circle cx="123.000000" cy="116.000000" r="1"/>
<line x1="112.000000" y1="105.000000" x2="112.000000" y2="147.000000"  style="stroke: black; stroke-linecap:round; stroke-width:0.25; stroke-dasharray:3,3;"/>
<line x1="112.000000" y1="147.000000" x2="155.800000" y2="147.000000"  style="stroke: black; stroke-linecap:round; stroke-width:0.25; stroke-dasharray:3,3;"/>
<line x1="155.800000" y1="147.000000" x2="155.800000" y2="105.000000"  style="stroke: black; stroke-linecap:round; stroke-width:0.25; stroke-dasharray:3,3;"/>
<line x1="112.000000" y1="105.000000" x2="117.000000" y2="105.000000"  style="stroke: black; stroke-linecap:round; stroke-width:0.25; stroke-dasharray:3,3;"/>
<line x1="136.350000" y1="105.000000" x2="155.800000" y2="105.000000"  style="stroke: black; stroke-linecap:round; stroke-width:0.25; stroke-dasharray:3,3;"/>
<text x="117.000000" y="107.000000" font-family="Arial" font-size="7">dffs</text>
<rect x="173.800000" y="111.000000" width="24.000000" height="24.000000" rx="0" ry="0" style="stroke:none;fill:#cccccc;"/>
<rect x="172.800000" y="110.000000" width="24.000000" height="24.000000" rx="0" ry="0" style="stroke:none;fill:#4B71A1;"/>
<text x="184.800000" y="124.000000" font-family="Arial" font-size="7" text-anchor="middle" fill="#FFFFFF">*</text>
<circle cx="174.800000" cy="112.000000" r="1"/>
<line x1="169.800000" y1="117.000000" x2="172.800000" y2="118.000000"  transform="rotate(0.000000,172.800000,118.000000)" style="stroke: black; stroke-width:0.25;"/>
<line x1="169.800000" y1="119.000000" x2="172.800000" y2="118.000000"  transform="rotate(0.000000,172.800000,118.000000)" style="stroke: black; stroke-width:0.25;"/>
<line x1="169.800000" y1="125.000000" x2="172.800000" y2="126.000000"  transform="rotate(0.000000,172.800000,126.000000)" style="stroke: black; stroke-width:0.25;"/>
<line x1="169.800000" y1="127.000000" x2="172.800000" y2="126.000000"  transform="rotate(0.000000,172.800000,126.000000)" style="stroke: black; stroke-width:0.25;"/>
<rect x="130.500000" y="25.000000" width="25.800000" height="24.000000" rx="0" ry="0" style="stroke:none;fill:#cccccc;"/>
<rect x="129.500000" y="24.000000" width="25.800000" height="24.000000" rx="0" ry="0" style="stroke:none;fill:#f44800;"/>
<text x="142.400000" y="38.000000" font-family="Arial" font-size="7" text-anchor="middle" fill="#FFFFFF">-0.54</text>
<circle cx="153.300000" cy="46.000000" r="1"/>
<rect x="90.500000" y="29.000000" width="24.000000" height="24.000000" rx="0" ry="0" style="stroke:none;fill:#cccccc;"/>
<rect x="89.500000" y="28.000000" width="24.000000" height="24.000000" rx="0" ry="0" style="stroke:none;fill:#4B71A1;"/>
<text x="101.500000" y="42.000000" font-family="Arial" font-size="7" text-anchor="middle" fill="#FFFFFF">*</text>
<circle cx="111.500000" cy="50.000000" r="1"/>
<line x1="116.500000" y1="43.000000" x2="113.500000" y2="44.000000"  transform="rotate(0.000000,113.500000,44.000000)" style="stroke: black; stroke-width:0.25;"/>
<line x1="116.500000" y1="45.000000" x2="113.500000" y2="44.000000"  transform="rotate(0.000000,113.500000,44.000000)" style="stroke: black; stroke-width:0.25;"/>
<line x1="116.500000" y1="35.000000" x2="113.500000" y2="36.000000"  transform="rotate(0.000000,113.500000,36.000000)" style="stroke: black; stroke-width:0.25;"/>
<line x1="116.500000" y1="37.000000" x2="113.500000" y2="36.000000"  transform="rotate(0.000000,113.500000,36.000000)" style="stroke: black; stroke-width:0.25;"/>
<line x1="198.800000" y1="76.000000" x2="198.800000" y2="72.000000"  style="stroke:black; stroke-linecap:round; stroke-width:0.25;"/>
<line x1="198.800000" y1="72.000000" x2="202.800000" y2="72.000000"  style="stroke:black; stroke-linecap:round; stroke-width:0.25;"/>
<line x1="202.800000" y1="72.000000" x2="202.800000" y2="76.000000"  style="stroke:black; stroke-linecap:round; stroke-width:0.25;"/>
<rect x="221.800000" y="71.000000" width="24.000000" height="24.000000" rx="0" ry="0" style="stroke:none;fill:#cccccc;"/>
<rect x="220.800000" y="70.000000" width="24.000000" height="24.000000" rx="0" ry="0" style="stroke:none;fill:#4B71A1;"/>
<text x="232.800000" y="84.000000" font-family="Arial" font-size="7" text-anchor="middle" fill="#FFFFFF">mem</text>
<circle cx="222.800000" cy="72.000000" r="1"/>
<line x1="217.800000" y1="81.000000" x2="220.800000" y2="82.000000"  transform="rotate(0.000000,220.800000,82.000000)" style="stroke: black; stroke-width:0.25;"/>
<line x1="217.800000" y1="83.000000" x2="220.800000" y2="82.000000"  transform="rotate(0.000000,220.800000,82.000000)" style="stroke: black; stroke-width:0.25;"/>
<rect x="261.800000" y="75.000000" width="24.000000" height="24.000000" rx="0" ry="0" style="stroke:none;fill:#cccccc;"/>
<rect x="260.800000" y="74.000000" width="24.000000" height="24.000000" rx="0" ry="0" style="stroke:none;fill:#4B71A1;"/>
<text x="272.800000" y="88.000000" font-family="Arial" font-size="7" text-anchor="middle" fill="#FFFFFF">+</text>
<circle cx="262.800000" cy="76.000000" r="1"/>
<line x1="257.800000" y1="81.000000" x2="260.800000" y2="82.000000"  transform="rotate(0.000000,260.800000,82.000000)" style="stroke: black; stroke-width:0.25;"/>
<line x1="257.800000" y1="83.000000" x2="260.800000" y2="82.000000"  transform="rotate(0.000000,260.800000,82.000000)" style="stroke: black; stroke-width:0.25;"/>
<line x1="257.800000" y1="89.000000" x2="260.800000" y2="90.000000"  transform="rotate(0.000000,260.800000,90.000000)" style="stroke: black; stroke-width:0.25;"/>
<line x1="257.800000" y1="91.000000" x2="260.800000" y2="90.000000"  transform="rotate(0.000000,260.800000,90.000000)" style="stroke: black; stroke-width:0.25;"/>
<line x1="15.000000" y1="15.000000" x2="15.000000" y2="157.000000"  style="stroke: black; stroke-linecap:round; stroke-width:0.25; stroke-dasharray:3,3;"/>
<line x1="15.000000" y1="157.000000" x2="301.800000" y2="157.000000"  style="stroke: black; stroke-linecap:round; stroke-width:0.25; stroke-dasharray:3,3;"/>
<line x1="301.800000" y1="157.000000" x2="301.800000" y2="15.000000"  style="stroke: black; stroke-linecap:round; stroke-width:0.25; stroke-dasharray:3,3;"/>
<line x1="15.000000" y1="15.000000" x2="20.000000" y2="15.000000"  style="stroke: black; stroke-linecap:round; stroke-width:0.25; stroke-dasharray:3,3;"/>
<line x1="68.375000" y1="15.000000" x2="301.800000" y2="15.000000"  style="stroke: black; stroke-linecap:round; stroke-width:0.25; stroke-dasharray:3,3;"/>
<text x="20.000000" y="17.000000" font-family="Arial" font-size="7">allpass(0)(2)</text>
<line x1="303.800000" y1="85.000000" x2="306.800000" y2="86.000000"  transform="rotate(0.000000,306.800000,86.000000)" style="stroke: black; stroke-width:0.25;"/>
<line x1="303.800000" y1="87.000000" x2="306.800000" y2="86.000000"  transform="rotate(0.000000,306.800000,86.000000)" style="stroke: black; stroke-width:0.25;"/>
<line x1="10.000000" y1="86.000000" x2="20.000000" y2="86.000000"  style="stroke:black; stroke-linecap:round; stroke-width:0.25;"/>
<line x1="20.000000" y1="86.000000" x2="24.000000" y2="86.000000"  style="stroke:black; stroke-linecap:round; stroke-width:0.25;"/>
<line x1="24.000000" y1="86.000000" x2="28.000000" y2="86.000000"  style="stroke:black; stroke-linecap:round; stroke-width:0.25;"/>
<line x1="28.000000" y1="86.000000" x2="36.000000" y2="86.000000"  style="stroke:black; stroke-linecap:round; stroke-width:0.25;"/>
<line x1="36.000000" y1="86.000000" x2="36.000000" y2="110.000000"  style="stroke:black; stroke-linecap:round; stroke-width:0.25;"/>
<line x1="36.000000" y1="110.000000" x2="36.000000" y2="110.000000"  style="stroke:black; stroke-linecap:round; stroke-width:0.25;"/>
<line x1="36.000000" y1="110.000000" x2="44.000000" y2="110.000000"  style="stroke:black; stroke-linecap:round; stroke-width:0.25;"/>
<line x1="44.000000" y1="40.000000" x2="44.000000" y2="40.000000"  style="stroke:black; stroke-linecap:round; stroke-width:0.25;"/>
<line x1="44.000000" y1="40.000000" x2="44.000000" y2="102.000000"  style="stroke:black; stroke-linecap:round; stroke-width:0.25;"/>
<line x1="44.000000" y1="102.000000" x2="44.000000" y2="102.000000"  style="stroke:black; stroke-linecap:round; stroke-width:0.25;"/>
<line x1="44.000000" y1="102.000000" x2="48.000000" y2="102.000000"  style="stroke:black; stroke-linecap:round; stroke-width:0.25;"/>
<line x1="44.000000" y1="110.000000" x2="48.000000" y2="110.000000"  style="stroke:black; stroke-linecap:round; stroke-width:0.25;"/>
<line x1="72.000000" y1="106.000000" x2="76.000000" y2="106.000000"  style="stroke:black; stroke-linecap:round; stroke-width:0.25;"/>
<line x1="76.000000" y1="106.000000" x2="107.000000" y2="76.000000"  style="stroke:black; stroke-linecap:round; stroke-width:0.25;"/>
<line x1="76.000000" y1="106.000000" x2="107.000000" y2="96.000000"  style="stroke:black; stroke-linecap:round; stroke-width:0.25;"/>
<line x1="85.500000" y1="40.000000" x2="44.000000" y2="40.000000"  style="stroke:black; stroke-linecap:round; stroke-width:0.25;"/>
<line x1="89.500000" y1="40.000000" x2="85.500000" y2="40.000000"  style="stroke:black; stroke-linecap:round; stroke-width:0.25;"/>
<line x1="107.000000" y1="76.000000" x2="111.200000" y2="76.000000"  style="stroke:black; stroke-linecap:round; stroke-width:0.25;"/>
<line x1="107.000000" y1="96.000000" x2="133.900000" y2="96.000000"  style="stroke:black; stroke-linecap:round; stroke-width:0.25;"/>
<line x1="111.200000" y1="76.000000" x2="115.200000" y2="76.000000"  style="stroke:black; stroke-linecap:round; stroke-width:0.25;"/>
<line x1="117.500000" y1="36.000000" x2="113.500000" y2="36.000000"  style="stroke:black; stroke-linecap:round; stroke-width:0.25;"/>
<line x1="117.500000" y1="44.000000" x2="113.500000" y2="44.000000"  style="stroke:black; stroke-linecap:round; stroke-width:0.25;"/>
<line x1="117.500000" y1="44.000000" x2="117.500000" y2="44.000000"  style="stroke:black; stroke-linecap:round; stroke-width:0.25;"/>
<line x1="117.500000" y1="56.000000" x2="117.500000" y2="44.000000"  style="stroke:black; stroke-linecap:round; stroke-width:0.25;"/>
<line x1="125.500000" y1="36.000000" x2="117.500000" y2="36.000000"  style="stroke:black; stroke-linecap:round; stroke-width:0.25;"/>
<line x1="125.500000" y1="56.000000" x2="117.500000" y2="56.000000"  style="stroke:black; stroke-linecap:round; stroke-width:0.25;"/>
<line x1="129.500000" y1="36.000000" x2="125.500000" y2="36.000000"  style="stroke:black; stroke-linecap:round; stroke-width:0.25;"/>
<line x1="133.900000" y1="96.000000" x2="160.800000" y2="96.000000"  style="stroke:black; stroke-linecap:round; stroke-width:0.25;"/>
<line x1="142.400000" y1="56.000000" x2="125.500000" y2="56.000000"  style="stroke:black; stroke-linecap:round; stroke-width:0.25;"/>
<line x1="146.800000" y1="126.000000" x2="150.800000" y2="126.000000"  style="stroke:black; stroke-linecap:round; stroke-width:0.25;"/>
<line x1="150.800000" y1="126.000000" x2="160.800000" y2="126.000000"  style="stroke:black; stroke-linecap:round; stroke-width:0.25;"/>
<line x1="159.300000" y1="56.000000" x2="142.400000" y2="56.000000"  style="stroke:black; stroke-linecap:round; stroke-width:0.25;"/>
<line x1="160.800000" y1="96.000000" x2="168.800000" y2="96.000000"  style="stroke:black; stroke-linecap:round; stroke-width:0.25;"/>
<line x1="160.800000" y1="126.000000" x2="168.800000" y2="126.000000"  style="stroke:black; stroke-linecap:round; stroke-width:0.25;"/>
<line x1="168.800000" y1="96.000000" x2="168.800000" y2="118.000000"  style="stroke:black; stroke-linecap:round; stroke-width:0.25;"/>
<line x1="168.800000" y1="118.000000" x2="168.800000" y2="118.000000"  style="stroke:black; stroke-linecap:round; stroke-width:0.25;"/>
<line x1="168.800000" y1="118.000000" x2="172.800000" y2="118.000000"  style="stroke:black; stroke-linecap:round; stroke-width:0.25;"/>
<line x1="168.800000" y1="126.000000" x2="172.800000" y2="126.000000"  style="stroke:black; stroke-linecap:round; stroke-width:0.25;"/>
<line x1="192.600000" y1="76.000000" x2="196.600000" y2="76.000000"  style="stroke:black; stroke-linecap:round; stroke-width:0.25;"/>
<line x1="196.600000" y1="76.000000" x2="200.800000" y2="76.000000"  style="stroke:black; stroke-linecap:round; stroke-width:0.25;"/>
<line x1="196.800000" y1="122.000000" x2="200.800000" y2="122.000000"  style="stroke:black; stroke-linecap:round; stroke-width:0.25;"/>
<line x1="200.800000" y1="56.000000" x2="159.300000" y2="56.000000"  style="stroke:black; stroke-linecap:round; stroke-width:0.25;"/>
<line x1="200.800000" y1="56.000000" x2="200.800000" y2="56.000000"  style="stroke:black; stroke-linecap:round; stroke-width:0.25;"/>
<line x1="200.800000" y1="72.000000" x2="200.800000" y2="56.000000"  style="stroke:black; stroke-linecap:round; stroke-width:0.25;"/>
<line x1="200.800000" y1="76.000000" x2="202.800000" y2="76.000000"  style="stroke:black; stroke-linecap:round; stroke-width:0.25;"/>
<line x1="200.800000" y1="122.000000" x2="208.800000" y2="122.000000"  style="stroke:black; stroke-linecap:round; stroke-width:0.25;"/>
<line x1="202.800000" y1="76.000000" x2="208.800000" y2="76.000000"  style="stroke:black; stroke-linecap:round; stroke-width:0.25;"/>
<line x1="208.800000" y1="76.000000" x2="216.800000" y2="76.000000"  style="stroke:black; stroke-linecap:round; stroke-width:0.25;"/>
<line x1="208.800000" y1="102.000000" x2="216.800000" y2="102.000000"  style="stroke:black; stroke-linecap:round; stroke-width:0.25;"/>
<line x1="208.800000" y1="122.000000" x2="208.800000" y2="102.000000"  style="stroke:black; stroke-linecap:round; stroke-width:0.25;"/>
<line x1="208.800000" y1="122.000000" x2="208.800000" y2="122.000000"  style="stroke:black; stroke-linecap:round; stroke-width:0.25;"/>
<line x1="216.800000" y1="76.000000" x2="216.800000" y2="82.000000"  style="stroke:black; stroke-linecap:round; stroke-width:0.25;"/>
<line x1="216.800000" y1="82.000000" x2="216.800000" y2="82.000000"  style="stroke:black; stroke-linecap:round; stroke-width:0.25;"/>
<line x1="216.800000" y1="82.000000" x2="220.800000" y2="82.000000"  style="stroke:black; stroke-linecap:round; stroke-width:0.25;"/>
<line x1="216.800000" y1="102.000000" x2="232.800000" y2="102.000000"  style="stroke:black; stroke-linecap:round; stroke-width:0.25;"/>
<line x1="232.800000" y1="102.000000" x2="248.800000" y2="102.000000"  style="stroke:black; stroke-linecap:round; stroke-width:0.25;"/>
<line x1="244.800000" y1="82.000000" x2="248.800000" y2="82.000000"  style="stroke:black; stroke-linecap:round; stroke-width:0.25;"/>
<line x1="248.800000" y1="82.000000" x2="256.800000" y2="82.000000"  style="stroke:black; stroke-linecap:round; stroke-width:0.25;"/>
<line x1="248.800000" y1="90.000000" x2="256.800000" y2="90.000000"  style="stroke:black; stroke-linecap:round; stroke-width:0.25;"/>
<line x1="248.800000" y1="102.000000" x2="248.800000" y2="90.000000"  style="stroke:black; stroke-linecap:round; stroke-width:0.25;"/>
<line x1="248.800000" y1="102.000000" x2="248.800000" y2="102.000000"  style="stroke:black; stroke-linecap:round; stroke-width:0.25;"/>
<line x1="256.800000" y1="82.000000" x2="260.800000" y2="82.000000"  style="stroke:black; stroke-linecap:round; stroke-width:0.25;"/>
<line x1="256.800000" y1="90.000000" x2="260.800000" y2="90.000000"  style="stroke:black; stroke-linecap:round; stroke-width:0.25;"/>
<line x1="284.800000" y1="86.000000" x2="288.800000" y2="86.000000"  style="stroke:black; stroke-linecap:round; stroke-width:0.25;"/>
<line x1="288.800000" y1="86.000000" x2="288.800000" y2="86.000000"  style="stroke:black; stroke-linecap:round; stroke-width:0.25;"/>
<line x1="288.800000" y1="86.000000" x2="292.800000" y2="86.000000"  style="stroke:black; stroke-linecap:round; stroke-width:0.25;"/>
<line x1="292.800000" y1="86.000000" x2="296.800000" y2="86.000000"  style="stroke:black; stroke-linecap:round; stroke-width:0.25;"/>
<line x1="296.800000" y1="86.000000" x2="306.800000" y2="86.000000"  style="stroke:black; stroke-linecap:round; stroke-width:0.25;"/>
</svg>
