<?xml version="1.0"?>
<svg xmlns="http://www.w3.org/2000/svg" xmlns:xlink="http://www.w3.org/1999/xlink" viewBox="0 0 372.900000 172.000000" width="186.450000mm" height="86.000000mm" version="1.1">
<a xlink:href="diffusor-0x7fa649576b90.svg">
<rect x="1.000000" y="1.000000" width="371.900000" height="171.000000" rx="0" ry="0" style="stroke:none;fill:#cccccc;"/>
<rect x="0.000000" y="0.000000" width="371.900000" height="171.000000" rx="0" ry="0" style="stroke:none;fill:#ffffff;"/>
</a>
<text x="10.000000" y="7.000000" font-family="Arial" font-size="7"></text>
<rect x="49.000000" y="95.000000" width="24.000000" height="24.000000" rx="0" ry="0" style="stroke:none;fill:#cccccc;"/>
<rect x="48.000000" y="94.000000" width="24.000000" height="24.000000" rx="0" ry="0" style="stroke:none;fill:#4B71A1;"/>
<text x="60.000000" y="108.000000" font-family="Arial" font-size="7" text-anchor="middle" fill="#FFFFFF">+</text>
<circle cx="50.000000" cy="96.000000" r="1"/>
<line x1="45.000000" y1="101.000000" x2="48.000000" y2="102.000000"  transform="rotate(0.000000,48.000000,102.000000)" style="stroke: black; stroke-width:0.25;"/>
<line x1="45.000000" y1="103.000000" x2="48.000000" y2="102.000000"  transform="rotate(0.000000,48.000000,102.000000)" style="stroke: black; stroke-width:0.25;"/>
<line x1="45.000000" y1="109.000000" x2="48.000000" y2="110.000000"  transform="rotate(0.000000,48.000000,110.000000)" style="stroke: black; stroke-width:0.25;"/>
<line x1="45.000000" y1="111.000000" x2="48.000000" y2="110.000000"  transform="rotate(0.000000,48.000000,110.000000)" style="stroke: black; stroke-width:0.25;"/>
<a xlink:href="fdelay-0x7fa64967ef00.svg">
<rect x="112.000000" y="65.000000" width="141.900000" height="24.000000" rx="0" ry="0" style="stroke:none;fill:#cccccc;"/>
<rect x="111.000000" y="64.000000" width="141.900000" height="24.000000" rx="0" ry="0" style="stroke:none;fill:#003366;"/>
</a>
<a xlink:href="fdelay-0x7fa64967ef00.svg">
<text x="181.950000" y="78.000000" font-family="Arial" font-size="7" text-anchor="middle" fill="#FFFFFF">fdelay(5000)(1606.6420000000001f)</text>
</a>
<circle cx="113.000000" cy="66.000000" r="1"/>
<line x1="108.000000" y1="75.000000" x2="111.000000" y2="76.000000"  transform="rotate(0.000000,111.000000,76.000000)" style="stroke: black; stroke-width:0.25;"/>
<line x1="108.000000" y1="77.000000" x2="111.000000" y2="76.000000"  transform="rotate(0.000000,111.000000,76.000000)" style="stroke: black; stroke-width:0.25;"/>
<rect x="150.050000" y="115.000000" width="25.800000" height="24.000000" rx="0" ry="0" style="stroke:none;fill:#cccccc;"/>
<rect x="149.050000" y="114.000000" width="25.800000" height="24.000000" rx="0" ry="0" style="stroke:none;fill:#f44800;"/>
<text x="161.950000" y="128.000000" font-family="Arial" font-size="7" text-anchor="middle" fill="#FFFFFF">0.54</text>
<circle cx="151.050000" cy="116.000000" r="1"/>
<line x1="140.050000" y1="105.000000" x2="140.050000" y2="147.000000"  style="stroke: black; stroke-linecap:round; stroke-width:0.25; stroke-dasharray:3,3;"/>
<line x1="140.050000" y1="147.000000" x2="183.850000" y2="147.000000"  style="stroke: black; stroke-linecap:round; stroke-width:0.25; stroke-dasharray:3,3;"/>
<line x1="183.850000" y1="147.000000" x2="183.850000" y2="105.000000"  style="stroke: black; stroke-linecap:round; stroke-width:0.25; stroke-dasharray:3,3;"/>
<line x1="140.050000" y1="105.000000" x2="145.050000" y2="105.000000"  style="stroke: black; stroke-linecap:round; stroke-width:0.25; stroke-dasharray:3,3;"/>
<line x1="164.400000" y1="105.000000" x2="183.850000" y2="105.000000"  style="stroke: black; stroke-linecap:round; stroke-width:0.25; stroke-dasharray:3,3;"/>
<text x="145.050000" y="107.000000" font-family="Arial" font-size="7">dffs</text>
<rect x="201.850000" y="111.000000" width="24.000000" height="24.000000" rx="0" ry="0" style="stroke:none;fill:#cccccc;"/>
<rect x="200.850000" y="110.000000" width="24.000000" height="24.000000" rx="0" ry="0" style="stroke:none;fill:#4B71A1;"/>
<text x="212.850000" y="124.000000" font-family="Arial" font-size="7" text-anchor="middle" fill="#FFFFFF">*</text>
<circle cx="202.850000" cy="112.000000" r="1"/>
<line x1="197.850000" y1="117.000000" x2="200.850000" y2="118.000000"  transform="rotate(0.000000,200.850000,118.000000)" style="stroke: black; stroke-width:0.25;"/>
<line x1="197.850000" y1="119.000000" x2="200.850000" y2="118.000000"  transform="rotate(0.000000,200.850000,118.000000)" style="stroke: black; stroke-width:0.25;"/>
<line x1="197.850000" y1="125.000000" x2="200.850000" y2="126.000000"  transform="rotate(0.000000,200.850000,126.000000)" style="stroke: black; stroke-width:0.25;"/>
<line x1="197.850000" y1="127.000000" x2="200.850000" y2="126.000000"  transform="rotate(0.000000,200.850000,126.000000)" style="stroke: black; stroke-width:0.25;"/>
<rect x="158.550000" y="25.000000" width="25.800000" height="24.000000" rx="0" ry="0" style="stroke:none;fill:#cccccc;"/>
<rect x="157.550000" y="24.000000" width="25.800000" height="24.000000" rx="0" ry="0" style="stroke:none;fill:#f44800;"/>
<text x="170.450000" y="38.000000" font-family="Arial" font-size="7" text-anchor="middle" fill="#FFFFFF">-0.54</text>
<circle cx="181.350000" cy="46.000000" r="1"/>
<rect x="118.550000" y="29.000000" width="24.000000" height="24.000000" rx="0" ry="0" style="stroke:none;fill:#cccccc;"/>
<rect x="117.550000" y="28.000000" width="24.000000" height="24.000000" rx="0" ry="0" style="stroke:none;fill:#4B71A1;"/>
<text x="129.550000" y="42.000000" font-family="Arial" font-size="7" text-anchor="middle" fill="#FFFFFF">*</text>
<circle cx="139.550000" cy="50.000000" r="1"/>
<line x1="144.550000" y1="43.000000" x2="141.550000" y2="44.000000"  transform="rotate(0.000000,141.550000,44.000000)" style="stroke: black; stroke-width:0.25;"/>
<line x1="144.550000" y1="45.000000" x2="141.550000" y2="44.000000"  transform="rotate(0.000000,141.550000,44.000000)" style="stroke: black; stroke-width:0.25;"/>
<line x1="144.550000" y1="35.000000" x2="141.550000" y2="36.000000"  transform="rotate(0.000000,141.550000,36.000000)" style="stroke: black; stroke-width:0.25;"/>
<line x1="144.550000" y1="37.000000" x2="141.550000" y2="36.000000"  transform="rotate(0.000000,141.550000,36.000000)" style="stroke: black; stroke-width:0.25;"/>
<line x1="254.900000" y1="76.000000" x2="254.900000" y2="72.000000"  style="stroke:black; stroke-linecap:round; stroke-width:0.25;"/>
<line x1="254.900000" y1="72.000000" x2="258.900000" y2="72.000000"  style="stroke:black; stroke-linecap:round; stroke-width:0.25;"/>
<line x1="258.900000" y1="72.000000" x2="258.900000" y2="76.000000"  style="stroke:black; stroke-linecap:round; stroke-width:0.25;"/>
<rect x="277.900000" y="71.000000" width="24.000000" height="24.000000" rx="0" ry="0" style="stroke:none;fill:#cccccc;"/>
<rect x="276.900000" y="70.000000" width="24.000000" height="24.000000" rx="0" ry="0" style="stroke:none;fill:#4B71A1;"/>
<text x="288.900000" y="84.000000" font-family="Arial" font-size="7" text-anchor="middle" fill="#FFFFFF">mem</text>
<circle cx="278.900000" cy="72.000000" r="1"/>
<line x1="273.900000" y1="81.000000" x2="276.900000" y2="82.000000"  transform="rotate(0.000000,276.900000,82.000000)" style="stroke: black; stroke-width:0.25;"/>
<line x1="273.900000" y1="83.000000" x2="276.900000" y2="82.000000"  transform="rotate(0.000000,276.900000,82.000000)" style="stroke: black; stroke-width:0.25;"/>
<rect x="317.900000" y="75.000000" width="24.000000" height="24.000000" rx="0" ry="0" style="stroke:none;fill:#cccccc;"/>
<rect x="316.900000" y="74.000000" width="24.000000" height="24.000000" rx="0" ry="0" style="stroke:none;fill:#4B71A1;"/>
<text x="328.900000" y="88.000000" font-family="Arial" font-size="7" text-anchor="middle" fill="#FFFFFF">+</text>
<circle cx="318.900000" cy="76.000000" r="1"/>
<line x1="313.900000" y1="81.000000" x2="316.900000" y2="82.000000"  transform="rotate(0.000000,316.900000,82.000000)" style="stroke: black; stroke-width:0.25;"/>
<line x1="313.900000" y1="83.000000" x2="316.900000" y2="82.000000"  transform="rotate(0.000000,316.900000,82.000000)" style="stroke: black; stroke-width:0.25;"/>
<line x1="313.900000" y1="89.000000" x2="316.900000" y2="90.000000"  transform="rotate(0.000000,316.900000,90.000000)" style="stroke: black; stroke-width:0.25;"/>
<line x1="313.900000" y1="91.000000" x2="316.900000" y2="90.000000"  transform="rotate(0.000000,316.900000,90.000000)" style="stroke: black; stroke-width:0.25;"/>
<line x1="15.000000" y1="15.000000" x2="15.000000" y2="157.000000"  style="stroke: black; stroke-linecap:round; stroke-width:0.25; stroke-dasharray:3,3;"/>
<line x1="15.000000" y1="157.000000" x2="357.900000" y2="157.000000"  style="stroke: black; stroke-linecap:round; stroke-width:0.25; stroke-dasharray:3,3;"/>
<line x1="357.900000" y1="157.000000" x2="357.900000" y2="15.000000"  style="stroke: black; stroke-linecap:round; stroke-width:0.25; stroke-dasharray:3,3;"/>
<line x1="15.000000" y1="15.000000" x2="20.000000" y2="15.000000"  style="stroke: black; stroke-linecap:round; stroke-width:0.25; stroke-dasharray:3,3;"/>
<line x1="68.375000" y1="15.000000" x2="357.900000" y2="15.000000"  style="stroke: black; stroke-linecap:round; stroke-width:0.25; stroke-dasharray:3,3;"/>
<text x="20.000000" y="17.000000" font-family="Arial" font-size="7">allpass(1)(1)</text>
<line x1="359.900000" y1="85.000000" x2="362.900000" y2="86.000000"  transform="rotate(0.000000,362.900000,86.000000)" style="stroke: black; stroke-width:0.25;"/>
<line x1="359.900000" y1="87.000000" x2="362.900000" y2="86.000000"  transform="rotate(0.000000,362.900000,86.000000)" style="stroke: black; stroke-width:0.25;"/>
<line x1="10.000000" y1="86.000000" x2="20.000000" y2="86.000000"  style="stroke:black; stroke-linecap:round; stroke-width:0.25;"/>
<line x1="20.000000" y1="86.000000" x2="24.000000" y2="86.000000"  style="stroke:black; stroke-linecap:round; stroke-width:0.25;"/>
<line x1="24.000000" y1="86.000000" x2="28.000000" y2="86.000000"  style="stroke:black; stroke-linecap:round; stroke-width:0.25;"/>
<line x1="28.000000" y1="86.000000" x2="36.000000" y2="86.000000"  style="stroke:black; stroke-linecap:round; stroke-width:0.25;"/>
<line x1="36.000000" y1="86.000000" x2="36.000000" y2="110.000000"  style="stroke:black; stroke-linecap:round; stroke-width:0.25;"/>
<line x1="36.000000" y1="110.000000" x2="36.000000" y2="110.000000"  style="stroke:black; stroke-linecap:round; stroke-width:0.25;"/>
<line x1="36.000000" y1="110.000000" x2="44.000000" y2="110.000000"  style="stroke:black; stroke-linecap:round; stroke-width:0.25;"/>
<line x1="44.000000" y1="40.000000" x2="44.000000" y2="40.000000"  style="stroke:black; stroke-linecap:round; stroke-width:0.25;"/>
<line x1="44.000000" y1="40.000000" x2="44.000000" y2="102.000000"  style="stroke:black; stroke-linecap:round; stroke-width:0.25;"/>
<line x1="44.000000" y1="102.000000" x2="44.000000" y2="102.000000"  style="stroke:black; stroke-linecap:round; stroke-width:0.25;"/>
<line x1="44.000000" y1="102.000000" x2="48.000000" y2="102.000000"  style="stroke:black; stroke-linecap:round; stroke-width:0.25;"/>
<line x1="44.000000" y1="110.000000" x2="48.000000" y2="110.000000"  style="stroke:black; stroke-linecap:round; stroke-width:0.25;"/>
<line x1="72.000000" y1="106.000000" x2="76.000000" y2="106.000000"  style="stroke:black; stroke-linecap:round; stroke-width:0.25;"/>
<line x1="76.000000" y1="106.000000" x2="107.000000" y2="76.000000"  style="stroke:black; stroke-linecap:round; stroke-width:0.25;"/>
<line x1="76.000000" y1="106.000000" x2="107.000000" y2="96.000000"  style="stroke:black; stroke-linecap:round; stroke-width:0.25;"/>
<line x1="107.000000" y1="76.000000" x2="111.000000" y2="76.000000"  style="stroke:black; stroke-linecap:round; stroke-width:0.25;"/>
<line x1="107.000000" y1="96.000000" x2="135.050000" y2="96.000000"  style="stroke:black; stroke-linecap:round; stroke-width:0.25;"/>
<line x1="113.550000" y1="40.000000" x2="44.000000" y2="40.000000"  style="stroke:black; stroke-linecap:round; stroke-width:0.25;"/>
<line x1="117.550000" y1="40.000000" x2="113.550000" y2="40.000000"  style="stroke:black; stroke-linecap:round; stroke-width:0.25;"/>
<line x1="135.050000" y1="96.000000" x2="161.950000" y2="96.000000"  style="stroke:black; stroke-linecap:round; stroke-width:0.25;"/>
<line x1="145.550000" y1="36.000000" x2="141.550000" y2="36.000000"  style="stroke:black; stroke-linecap:round; stroke-width:0.25;"/>
<line x1="145.550000" y1="44.000000" x2="141.550000" y2="44.000000"  style="stroke:black; stroke-linecap:round; stroke-width:0.25;"/>
<line x1="145.550000" y1="44.000000" x2="145.550000" y2="44.000000"  style="stroke:black; stroke-linecap:round; stroke-width:0.25;"/>
<line x1="145.550000" y1="56.000000" x2="145.550000" y2="44.000000"  style="stroke:black; stroke-linecap:round; stroke-width:0.25;"/>
<line x1="153.550000" y1="36.000000" x2="145.550000" y2="36.000000"  style="stroke:black; stroke-linecap:round; stroke-width:0.25;"/>
<line x1="153.550000" y1="56.000000" x2="145.550000" y2="56.000000"  style="stroke:black; stroke-linecap:round; stroke-width:0.25;"/>
<line x1="157.550000" y1="36.000000" x2="153.550000" y2="36.000000"  style="stroke:black; stroke-linecap:round; stroke-width:0.25;"/>
<line x1="161.950000" y1="96.000000" x2="188.850000" y2="96.000000"  style="stroke:black; stroke-linecap:round; stroke-width:0.25;"/>
<line x1="170.450000" y1="56.000000" x2="153.550000" y2="56.000000"  style="stroke:black; stroke-linecap:round; stroke-width:0.25;"/>
<line x1="174.850000" y1="126.000000" x2="178.850000" y2="126.000000"  style="stroke:black; stroke-linecap:round; stroke-width:0.25;"/>
<line x1="178.850000" y1="126.000000" x2="188.850000" y2="126.000000"  style="stroke:black; stroke-linecap:round; stroke-width:0.25;"/>
<line x1="187.350000" y1="56.000000" x2="170.450000" y2="56.000000"  style="stroke:black; stroke-linecap:round; stroke-width:0.25;"/>
<line x1="188.850000" y1="96.000000" x2="196.850000" y2="96.000000"  style="stroke:black; stroke-linecap:round; stroke-width:0.25;"/>
<line x1="188.850000" y1="126.000000" x2="196.850000" y2="126.000000"  style="stroke:black; stroke-linecap:round; stroke-width:0.25;"/>
<line x1="196.850000" y1="96.000000" x2="196.850000" y2="118.000000"  style="stroke:black; stroke-linecap:round; stroke-width:0.25;"/>
<line x1="196.850000" y1="118.000000" x2="196.850000" y2="118.000000"  style="stroke:black; stroke-linecap:round; stroke-width:0.25;"/>
<line x1="196.850000" y1="118.000000" x2="200.850000" y2="118.000000"  style="stroke:black; stroke-linecap:round; stroke-width:0.25;"/>
<line x1="196.850000" y1="126.000000" x2="200.850000" y2="126.000000"  style="stroke:black; stroke-linecap:round; stroke-width:0.25;"/>
<line x1="224.850000" y1="122.000000" x2="228.850000" y2="122.000000"  style="stroke:black; stroke-linecap:round; stroke-width:0.25;"/>
<line x1="228.850000" y1="122.000000" x2="256.900000" y2="122.000000"  style="stroke:black; stroke-linecap:round; stroke-width:0.25;"/>
<line x1="252.900000" y1="76.000000" x2="256.900000" y2="76.000000"  style="stroke:black; stroke-linecap:round; stroke-width:0.25;"/>
<line x1="256.900000" y1="56.000000" x2="256.900000" y2="56.000000"  style="stroke:black; stroke-linecap:round; stroke-width:0.25;"/>
<line x1="256.900000" y1="72.000000" x2="256.900000" y2="56.000000"  style="stroke:black; stroke-linecap:round; stroke-width:0.25;"/>
<line x1="256.900000" y1="76.000000" x2="258.900000" y2="76.000000"  style="stroke:black; stroke-linecap:round; stroke-width:0.25;"/>
<line x1="256.900000" y1="56.000000" x2="187.350000" y2="56.000000"  style="stroke:black; stroke-linecap:round; stroke-width:0.25;"/>
<line x1="256.900000" y1="122.000000" x2="264.900000" y2="122.000000"  style="stroke:black; stroke-linecap:round; stroke-width:0.25;"/>
<line x1="258.900000" y1="76.000000" x2="264.900000" y2="76.000000"  style="stroke:black; stroke-linecap:round; stroke-width:0.25;"/>
<line x1="264.900000" y1="76.000000" x2="272.900000" y2="76.000000"  style="stroke:black; stroke-linecap:round; stroke-width:0.25;"/>
<line x1="264.900000" y1="102.000000" x2="272.900000" y2="102.000000"  style="stroke:black; stroke-linecap:round; stroke-width:0.25;"/>
<line x1="264.900000" y1="122.000000" x2="264.900000" y2="102.000000"  style="stroke:black; stroke-linecap:round; stroke-width:0.25;"/>
<line x1="264.900000" y1="122.000000" x2="264.900000" y2="122.000000"  style="stroke:black; stroke-linecap:round; stroke-width:0.25;"/>
<line x1="272.900000" y1="76.000000" x2="272.900000" y2="82.000000"  style="stroke:black; stroke-linecap:round; stroke-width:0.25;"/>
<line x1="272.900000" y1="82.000000" x2="272.900000" y2="82.000000"  style="stroke:black; stroke-linecap:round; stroke-width:0.25;"/>
<line x1="272.900000" y1="82.000000" x2="276.900000" y2="82.000000"  style="stroke:black; stroke-linecap:round; stroke-width:0.25;"/>
<line x1="272.900000" y1="102.000000" x2="288.900000" y2="102.000000"  style="stroke:black; stroke-linecap:round; stroke-width:0.25;"/>
<line x1="288.900000" y1="102.000000" x2="304.900000" y2="102.000000"  style="stroke:black; stroke-linecap:round; stroke-width:0.25;"/>
<line x1="300.900000" y1="82.000000" x2="304.900000" y2="82.000000"  style="stroke:black; stroke-linecap:round; stroke-width:0.25;"/>
<line x1="304.900000" y1="82.000000" x2="312.900000" y2="82.000000"  style="stroke:black; stroke-linecap:round; stroke-width:0.25;"/>
<line x1="304.900000" y1="90.000000" x2="312.900000" y2="90.000000"  style="stroke:black; stroke-linecap:round; stroke-width:0.25;"/>
<line x1="304.900000" y1="102.000000" x2="304.900000" y2="90.000000"  style="stroke:black; stroke-linecap:round; stroke-width:0.25;"/>
<line x1="304.900000" y1="102.000000" x2="304.900000" y2="102.000000"  style="stroke:black; stroke-linecap:round; stroke-width:0.25;"/>
<line x1="312.900000" y1="82.000000" x2="316.900000" y2="82.000000"  style="stroke:black; stroke-linecap:round; stroke-width:0.25;"/>
<line x1="312.900000" y1="90.000000" x2="316.900000" y2="90.000000"  style="stroke:black; stroke-linecap:round; stroke-width:0.25;"/>
<line x1="340.900000" y1="86.000000" x2="344.900000" y2="86.000000"  style="stroke:black; stroke-linecap:round; stroke-width:0.25;"/>
<line x1="344.900000" y1="86.000000" x2="344.900000" y2="86.000000"  style="stroke:black; stroke-linecap:round; stroke-width:0.25;"/>
<line x1="344.900000" y1="86.000000" x2="348.900000" y2="86.000000"  style="stroke:black; stroke-linecap:round; stroke-width:0.25;"/>
<line x1="348.900000" y1="86.000000" x2="352.900000" y2="86.000000"  style="stroke:black; stroke-linecap:round; stroke-width:0.25;"/>
<line x1="352.900000" y1="86.000000" x2="362.900000" y2="86.000000"  style="stroke:black; stroke-linecap:round; stroke-width:0.25;"/>
</svg>
