<?xml version="1.0"?>
<svg xmlns="http://www.w3.org/2000/svg" xmlns:xlink="http://www.w3.org/1999/xlink" viewBox="0 0 280.500000 220.000000" width="140.250000mm" height="110.000000mm" version="1.1">
<a xlink:href="allpass-0x7fa64956b200.svg">
<rect x="1.000000" y="1.000000" width="279.500000" height="219.000000" rx="0" ry="0" style="stroke:none;fill:#cccccc;"/>
<rect x="0.000000" y="0.000000" width="279.500000" height="219.000000" rx="0" ry="0" style="stroke:none;fill:#ffffff;"/>
</a>
<text x="10.000000" y="7.000000" font-family="Arial" font-size="7"></text>
<rect x="33.000000" y="99.000000" width="24.000000" height="24.000000" rx="0" ry="0" style="stroke:none;fill:#cccccc;"/>
<rect x="32.000000" y="98.000000" width="24.000000" height="24.000000" rx="0" ry="0" style="stroke:none;fill:#47945E;"/>
<text x="44.000000" y="112.000000" font-family="Arial" font-size="7" text-anchor="middle" fill="#FFFFFF">x</text>
<circle cx="34.000000" cy="100.000000" r="1"/>
<line x1="29.000000" y1="109.000000" x2="32.000000" y2="110.000000"  transform="rotate(0.000000,32.000000,110.000000)" style="stroke: black; stroke-width:0.25;"/>
<line x1="29.000000" y1="111.000000" x2="32.000000" y2="110.000000"  transform="rotate(0.000000,32.000000,110.000000)" style="stroke: black; stroke-width:0.25;"/>
<a xlink:href="delay-0x7fa6495643e0.svg">
<rect x="72.100000" y="25.000000" width="90.300000" height="24.000000" rx="0" ry="0" style="stroke:none;fill:#cccccc;"/>
<rect x="71.100000" y="24.000000" width="90.300000" height="24.000000" rx="0" ry="0" style="stroke:none;fill:#003366;"/>
</a>
<a xlink:href="delay-0x7fa6495643e0.svg">
<text x="116.250000" y="38.000000" font-family="Arial" font-size="7" text-anchor="middle" fill="#FFFFFF">delay(5001)(1999)(x4)</text>
</a>
<circle cx="73.100000" cy="26.000000" r="1"/>
<rect x="85.250000" y="67.000000" width="24.000000" height="24.000000" rx="0" ry="0" style="stroke:none;fill:#cccccc;"/>
<rect x="84.250000" y="66.000000" width="24.000000" height="24.000000" rx="0" ry="0" style="stroke:none;fill:#f44800;"/>
<text x="96.250000" y="80.000000" font-family="Arial" font-size="7" text-anchor="middle" fill="#FFFFFF">1</text>
<circle cx="86.250000" cy="68.000000" r="1"/>
<line x1="75.250000" y1="57.000000" x2="75.250000" y2="99.000000"  style="stroke: black; stroke-linecap:round; stroke-width:0.25; stroke-dasharray:3,3;"/>
<line x1="75.250000" y1="99.000000" x2="117.250000" y2="99.000000"  style="stroke: black; stroke-linecap:round; stroke-width:0.25; stroke-dasharray:3,3;"/>
<line x1="117.250000" y1="99.000000" x2="117.250000" y2="57.000000"  style="stroke: black; stroke-linecap:round; stroke-width:0.25; stroke-dasharray:3,3;"/>
<line x1="75.250000" y1="57.000000" x2="80.250000" y2="57.000000"  style="stroke: black; stroke-linecap:round; stroke-width:0.25; stroke-dasharray:3,3;"/>
<line x1="93.150000" y1="57.000000" x2="117.250000" y2="57.000000"  style="stroke: black; stroke-linecap:round; stroke-width:0.25; stroke-dasharray:3,3;"/>
<text x="80.250000" y="59.000000" font-family="Arial" font-size="7">nb</text>
<a xlink:href="decimal-0x7fa6495659e0.svg">
<rect x="65.000000" y="109.000000" width="64.500000" height="24.000000" rx="0" ry="0" style="stroke:none;fill:#cccccc;"/>
<rect x="64.000000" y="108.000000" width="64.500000" height="24.000000" rx="0" ry="0" style="stroke:none;fill:#003366;"/>
</a>
<a xlink:href="decimal-0x7fa6495659e0.svg">
<text x="96.250000" y="122.000000" font-family="Arial" font-size="7" text-anchor="middle" fill="#FFFFFF">decimal(1999)</text>
</a>
<circle cx="66.000000" cy="110.000000" r="1"/>
<rect x="145.500000" y="83.000000" width="24.000000" height="24.000000" rx="0" ry="0" style="stroke:none;fill:#cccccc;"/>
<rect x="144.500000" y="82.000000" width="24.000000" height="24.000000" rx="0" ry="0" style="stroke:none;fill:#4B71A1;"/>
<text x="156.500000" y="96.000000" font-family="Arial" font-size="7" text-anchor="middle" fill="#FFFFFF">-</text>
<circle cx="146.500000" cy="84.000000" r="1"/>
<line x1="141.500000" y1="89.000000" x2="144.500000" y2="90.000000"  transform="rotate(0.000000,144.500000,90.000000)" style="stroke: black; stroke-width:0.25;"/>
<line x1="141.500000" y1="91.000000" x2="144.500000" y2="90.000000"  transform="rotate(0.000000,144.500000,90.000000)" style="stroke: black; stroke-width:0.25;"/>
<line x1="141.500000" y1="97.000000" x2="144.500000" y2="98.000000"  transform="rotate(0.000000,144.500000,98.000000)" style="stroke: black; stroke-width:0.25;"/>
<line x1="141.500000" y1="99.000000" x2="144.500000" y2="98.000000"  transform="rotate(0.000000,144.500000,98.000000)" style="stroke: black; stroke-width:0.25;"/>
<rect x="185.500000" y="67.000000" width="24.000000" height="24.000000" rx="0" ry="0" style="stroke:none;fill:#cccccc;"/>
<rect x="184.500000" y="66.000000" width="24.000000" height="24.000000" rx="0" ry="0" style="stroke:none;fill:#4B71A1;"/>
<text x="196.500000" y="80.000000" font-family="Arial" font-size="7" text-anchor="middle" fill="#FFFFFF">*</text>
<circle cx="186.500000" cy="68.000000" r="1"/>
<line x1="181.500000" y1="73.000000" x2="184.500000" y2="74.000000"  transform="rotate(0.000000,184.500000,74.000000)" style="stroke: black; stroke-width:0.25;"/>
<line x1="181.500000" y1="75.000000" x2="184.500000" y2="74.000000"  transform="rotate(0.000000,184.500000,74.000000)" style="stroke: black; stroke-width:0.25;"/>
<line x1="181.500000" y1="81.000000" x2="184.500000" y2="82.000000"  transform="rotate(0.000000,184.500000,82.000000)" style="stroke: black; stroke-width:0.25;"/>
<line x1="181.500000" y1="83.000000" x2="184.500000" y2="82.000000"  transform="rotate(0.000000,184.500000,82.000000)" style="stroke: black; stroke-width:0.25;"/>
<a xlink:href="delay-0x7fa64956a460.svg">
<rect x="72.100000" y="141.000000" width="90.300000" height="24.000000" rx="0" ry="0" style="stroke:none;fill:#cccccc;"/>
<rect x="71.100000" y="140.000000" width="90.300000" height="24.000000" rx="0" ry="0" style="stroke:none;fill:#003366;"/>
</a>
<a xlink:href="delay-0x7fa64956a460.svg">
<text x="116.250000" y="154.000000" font-family="Arial" font-size="7" text-anchor="middle" fill="#FFFFFF">delay(5001)(2000)(x4)</text>
</a>
<circle cx="73.100000" cy="142.000000" r="1"/>
<a xlink:href="decimal-0x7fa6495659e0.svg">
<rect x="85.000000" y="173.000000" width="64.500000" height="24.000000" rx="0" ry="0" style="stroke:none;fill:#cccccc;"/>
<rect x="84.000000" y="172.000000" width="64.500000" height="24.000000" rx="0" ry="0" style="stroke:none;fill:#003366;"/>
</a>
<a xlink:href="decimal-0x7fa6495659e0.svg">
<text x="116.250000" y="186.000000" font-family="Arial" font-size="7" text-anchor="middle" fill="#FFFFFF">decimal(1999)</text>
</a>
<circle cx="86.000000" cy="174.000000" r="1"/>
<rect x="178.400000" y="157.000000" width="24.000000" height="24.000000" rx="0" ry="0" style="stroke:none;fill:#cccccc;"/>
<rect x="177.400000" y="156.000000" width="24.000000" height="24.000000" rx="0" ry="0" style="stroke:none;fill:#4B71A1;"/>
<text x="189.400000" y="170.000000" font-family="Arial" font-size="7" text-anchor="middle" fill="#FFFFFF">*</text>
<circle cx="179.400000" cy="158.000000" r="1"/>
<line x1="174.400000" y1="163.000000" x2="177.400000" y2="164.000000"  transform="rotate(0.000000,177.400000,164.000000)" style="stroke: black; stroke-width:0.25;"/>
<line x1="174.400000" y1="165.000000" x2="177.400000" y2="164.000000"  transform="rotate(0.000000,177.400000,164.000000)" style="stroke: black; stroke-width:0.25;"/>
<line x1="174.400000" y1="171.000000" x2="177.400000" y2="172.000000"  transform="rotate(0.000000,177.400000,172.000000)" style="stroke: black; stroke-width:0.25;"/>
<line x1="174.400000" y1="173.000000" x2="177.400000" y2="172.000000"  transform="rotate(0.000000,177.400000,172.000000)" style="stroke: black; stroke-width:0.25;"/>
<rect x="225.500000" y="99.000000" width="24.000000" height="24.000000" rx="0" ry="0" style="stroke:none;fill:#cccccc;"/>
<rect x="224.500000" y="98.000000" width="24.000000" height="24.000000" rx="0" ry="0" style="stroke:none;fill:#4B71A1;"/>
<text x="236.500000" y="112.000000" font-family="Arial" font-size="7" text-anchor="middle" fill="#FFFFFF">+</text>
<circle cx="226.500000" cy="100.000000" r="1"/>
<line x1="221.500000" y1="105.000000" x2="224.500000" y2="106.000000"  transform="rotate(0.000000,224.500000,106.000000)" style="stroke: black; stroke-width:0.25;"/>
<line x1="221.500000" y1="107.000000" x2="224.500000" y2="106.000000"  transform="rotate(0.000000,224.500000,106.000000)" style="stroke: black; stroke-width:0.25;"/>
<line x1="221.500000" y1="113.000000" x2="224.500000" y2="114.000000"  transform="rotate(0.000000,224.500000,114.000000)" style="stroke: black; stroke-width:0.25;"/>
<line x1="221.500000" y1="115.000000" x2="224.500000" y2="114.000000"  transform="rotate(0.000000,224.500000,114.000000)" style="stroke: black; stroke-width:0.25;"/>
<line x1="15.000000" y1="15.000000" x2="15.000000" y2="205.000000"  style="stroke: black; stroke-linecap:round; stroke-width:0.25; stroke-dasharray:3,3;"/>
<line x1="15.000000" y1="205.000000" x2="265.500000" y2="205.000000"  style="stroke: black; stroke-linecap:round; stroke-width:0.25; stroke-dasharray:3,3;"/>
<line x1="265.500000" y1="205.000000" x2="265.500000" y2="15.000000"  style="stroke: black; stroke-linecap:round; stroke-width:0.25; stroke-dasharray:3,3;"/>
<line x1="15.000000" y1="15.000000" x2="20.000000" y2="15.000000"  style="stroke: black; stroke-linecap:round; stroke-width:0.25; stroke-dasharray:3,3;"/>
<line x1="84.500000" y1="15.000000" x2="265.500000" y2="15.000000"  style="stroke: black; stroke-linecap:round; stroke-width:0.25; stroke-dasharray:3,3;"/>
<text x="20.000000" y="17.000000" font-family="Arial" font-size="7">fdelay(5000)(1999)</text>
<line x1="267.500000" y1="109.000000" x2="270.500000" y2="110.000000"  transform="rotate(0.000000,270.500000,110.000000)" style="stroke: black; stroke-width:0.25;"/>
<line x1="267.500000" y1="111.000000" x2="270.500000" y2="110.000000"  transform="rotate(0.000000,270.500000,110.000000)" style="stroke: black; stroke-width:0.25;"/>
<line x1="10.000000" y1="110.000000" x2="20.000000" y2="110.000000"  style="stroke:black; stroke-linecap:round; stroke-width:0.25;"/>
<line x1="20.000000" y1="110.000000" x2="24.000000" y2="110.000000"  style="stroke:black; stroke-linecap:round; stroke-width:0.25;"/>
<line x1="24.000000" y1="110.000000" x2="28.000000" y2="110.000000"  style="stroke:black; stroke-linecap:round; stroke-width:0.25;"/>
<line x1="28.000000" y1="110.000000" x2="28.000000" y2="110.000000"  style="stroke:black; stroke-linecap:round; stroke-width:0.25;"/>
<line x1="28.000000" y1="110.000000" x2="32.000000" y2="110.000000"  style="stroke:black; stroke-linecap:round; stroke-width:0.25;"/>
<line x1="108.250000" y1="78.000000" x2="112.250000" y2="78.000000"  style="stroke:black; stroke-linecap:round; stroke-width:0.25;"/>
<line x1="112.250000" y1="78.000000" x2="122.250000" y2="78.000000"  style="stroke:black; stroke-linecap:round; stroke-width:0.25;"/>
<line x1="122.250000" y1="78.000000" x2="132.500000" y2="78.000000"  style="stroke:black; stroke-linecap:round; stroke-width:0.25;"/>
<line x1="128.500000" y1="120.000000" x2="132.500000" y2="120.000000"  style="stroke:black; stroke-linecap:round; stroke-width:0.25;"/>
<line x1="132.500000" y1="78.000000" x2="140.500000" y2="78.000000"  style="stroke:black; stroke-linecap:round; stroke-width:0.25;"/>
<line x1="132.500000" y1="98.000000" x2="140.500000" y2="98.000000"  style="stroke:black; stroke-linecap:round; stroke-width:0.25;"/>
<line x1="132.500000" y1="120.000000" x2="132.500000" y2="98.000000"  style="stroke:black; stroke-linecap:round; stroke-width:0.25;"/>
<line x1="132.500000" y1="120.000000" x2="132.500000" y2="120.000000"  style="stroke:black; stroke-linecap:round; stroke-width:0.25;"/>
<line x1="140.500000" y1="78.000000" x2="140.500000" y2="90.000000"  style="stroke:black; stroke-linecap:round; stroke-width:0.25;"/>
<line x1="140.500000" y1="90.000000" x2="140.500000" y2="90.000000"  style="stroke:black; stroke-linecap:round; stroke-width:0.25;"/>
<line x1="140.500000" y1="90.000000" x2="144.500000" y2="90.000000"  style="stroke:black; stroke-linecap:round; stroke-width:0.25;"/>
<line x1="140.500000" y1="98.000000" x2="144.500000" y2="98.000000"  style="stroke:black; stroke-linecap:round; stroke-width:0.25;"/>
<line x1="148.500000" y1="184.000000" x2="152.500000" y2="184.000000"  style="stroke:black; stroke-linecap:round; stroke-width:0.25;"/>
<line x1="152.500000" y1="184.000000" x2="165.400000" y2="184.000000"  style="stroke:black; stroke-linecap:round; stroke-width:0.25;"/>
<line x1="161.400000" y1="36.000000" x2="165.400000" y2="36.000000"  style="stroke:black; stroke-linecap:round; stroke-width:0.25;"/>
<line x1="161.400000" y1="152.000000" x2="165.400000" y2="152.000000"  style="stroke:black; stroke-linecap:round; stroke-width:0.25;"/>
<line x1="165.400000" y1="36.000000" x2="172.500000" y2="36.000000"  style="stroke:black; stroke-linecap:round; stroke-width:0.25;"/>
<line x1="165.400000" y1="152.000000" x2="173.400000" y2="152.000000"  style="stroke:black; stroke-linecap:round; stroke-width:0.25;"/>
<line x1="165.400000" y1="172.000000" x2="173.400000" y2="172.000000"  style="stroke:black; stroke-linecap:round; stroke-width:0.25;"/>
<line x1="165.400000" y1="184.000000" x2="165.400000" y2="172.000000"  style="stroke:black; stroke-linecap:round; stroke-width:0.25;"/>
<line x1="165.400000" y1="184.000000" x2="165.400000" y2="184.000000"  style="stroke:black; stroke-linecap:round; stroke-width:0.25;"/>
<line x1="168.500000" y1="94.000000" x2="172.500000" y2="94.000000"  style="stroke:black; stroke-linecap:round; stroke-width:0.25;"/>
<line x1="172.500000" y1="36.000000" x2="180.500000" y2="36.000000"  style="stroke:black; stroke-linecap:round; stroke-width:0.25;"/>
<line x1="172.500000" y1="82.000000" x2="180.500000" y2="82.000000"  style="stroke:black; stroke-linecap:round; stroke-width:0.25;"/>
<line x1="172.500000" y1="94.000000" x2="172.500000" y2="82.000000"  style="stroke:black; stroke-linecap:round; stroke-width:0.25;"/>
<line x1="172.500000" y1="94.000000" x2="172.500000" y2="94.000000"  style="stroke:black; stroke-linecap:round; stroke-width:0.25;"/>
<line x1="173.400000" y1="152.000000" x2="173.400000" y2="164.000000"  style="stroke:black; stroke-linecap:round; stroke-width:0.25;"/>
<line x1="173.400000" y1="164.000000" x2="173.400000" y2="164.000000"  style="stroke:black; stroke-linecap:round; stroke-width:0.25;"/>
<line x1="173.400000" y1="164.000000" x2="177.400000" y2="164.000000"  style="stroke:black; stroke-linecap:round; stroke-width:0.25;"/>
<line x1="173.400000" y1="172.000000" x2="177.400000" y2="172.000000"  style="stroke:black; stroke-linecap:round; stroke-width:0.25;"/>
<line x1="180.500000" y1="36.000000" x2="180.500000" y2="74.000000"  style="stroke:black; stroke-linecap:round; stroke-width:0.25;"/>
<line x1="180.500000" y1="74.000000" x2="180.500000" y2="74.000000"  style="stroke:black; stroke-linecap:round; stroke-width:0.25;"/>
<line x1="180.500000" y1="74.000000" x2="184.500000" y2="74.000000"  style="stroke:black; stroke-linecap:round; stroke-width:0.25;"/>
<line x1="180.500000" y1="82.000000" x2="184.500000" y2="82.000000"  style="stroke:black; stroke-linecap:round; stroke-width:0.25;"/>
<line x1="201.400000" y1="168.000000" x2="205.400000" y2="168.000000"  style="stroke:black; stroke-linecap:round; stroke-width:0.25;"/>
<line x1="205.400000" y1="168.000000" x2="212.500000" y2="168.000000"  style="stroke:black; stroke-linecap:round; stroke-width:0.25;"/>
<line x1="208.500000" y1="78.000000" x2="212.500000" y2="78.000000"  style="stroke:black; stroke-linecap:round; stroke-width:0.25;"/>
<line x1="212.500000" y1="114.000000" x2="220.500000" y2="114.000000"  style="stroke:black; stroke-linecap:round; stroke-width:0.25;"/>
<line x1="212.500000" y1="168.000000" x2="212.500000" y2="114.000000"  style="stroke:black; stroke-linecap:round; stroke-width:0.25;"/>
<line x1="212.500000" y1="168.000000" x2="212.500000" y2="168.000000"  style="stroke:black; stroke-linecap:round; stroke-width:0.25;"/>
<line x1="212.500000" y1="78.000000" x2="220.500000" y2="78.000000"  style="stroke:black; stroke-linecap:round; stroke-width:0.25;"/>
<line x1="220.500000" y1="78.000000" x2="220.500000" y2="106.000000"  style="stroke:black; stroke-linecap:round; stroke-width:0.25;"/>
<line x1="220.500000" y1="106.000000" x2="220.500000" y2="106.000000"  style="stroke:black; stroke-linecap:round; stroke-width:0.25;"/>
<line x1="220.500000" y1="106.000000" x2="224.500000" y2="106.000000"  style="stroke:black; stroke-linecap:round; stroke-width:0.25;"/>
<line x1="220.500000" y1="114.000000" x2="224.500000" y2="114.000000"  style="stroke:black; stroke-linecap:round; stroke-width:0.25;"/>
<line x1="248.500000" y1="110.000000" x2="252.500000" y2="110.000000"  style="stroke:black; stroke-linecap:round; stroke-width:0.25;"/>
<line x1="252.500000" y1="110.000000" x2="252.500000" y2="110.000000"  style="stroke:black; stroke-linecap:round; stroke-width:0.25;"/>
<line x1="252.500000" y1="110.000000" x2="256.500000" y2="110.000000"  style="stroke:black; stroke-linecap:round; stroke-width:0.25;"/>
<line x1="256.500000" y1="110.000000" x2="260.500000" y2="110.000000"  style="stroke:black; stroke-linecap:round; stroke-width:0.25;"/>
<line x1="260.500000" y1="110.000000" x2="270.500000" y2="110.000000"  style="stroke:black; stroke-linecap:round; stroke-width:0.25;"/>
</svg>
