<?xml version="1.0"?>
<svg xmlns="http://www.w3.org/2000/svg" xmlns:xlink="http://www.w3.org/1999/xlink" viewBox="0 0 371.000000 92.000000" width="185.500000mm" height="46.000000mm" version="1.1">
<rect x="1.000000" y="1.000000" width="370.000000" height="91.000000" rx="0" ry="0" style="stroke:none;fill:#cccccc;"/>
<rect x="0.000000" y="0.000000" width="370.000000" height="91.000000" rx="0" ry="0" style="stroke:none;fill:#ffffff;"/>
<text x="10.000000" y="7.000000" font-family="Arial" font-size="7"></text>
<rect x="35.000000" y="35.000000" width="193.500000" height="24.000000" rx="0" ry="0" style="stroke:none;fill:#cccccc;"/>
<rect x="34.000000" y="34.000000" width="193.500000" height="24.000000" rx="0" ry="0" style="stroke:none;fill:#477881;"/>
<text x="130.750000" y="48.000000" font-family="Arial" font-size="7" text-anchor="middle" fill="#FFFFFF">vslider(Freq, 200.0f, 200.0f, 1000.0f, 1.0f)</text>
<circle cx="36.000000" cy="36.000000" r="1"/>
<line x1="25.000000" y1="25.000000" x2="25.000000" y2="67.000000"  style="stroke: black; stroke-linecap:round; stroke-width:0.25; stroke-dasharray:3,3;"/>
<line x1="25.000000" y1="67.000000" x2="236.500000" y2="67.000000"  style="stroke: black; stroke-linecap:round; stroke-width:0.25; stroke-dasharray:3,3;"/>
<line x1="236.500000" y1="67.000000" x2="236.500000" y2="25.000000"  style="stroke: black; stroke-linecap:round; stroke-width:0.25; stroke-dasharray:3,3;"/>
<line x1="25.000000" y1="25.000000" x2="30.000000" y2="25.000000"  style="stroke: black; stroke-linecap:round; stroke-width:0.25; stroke-dasharray:3,3;"/>
<line x1="49.350000" y1="25.000000" x2="236.500000" y2="25.000000"  style="stroke: black; stroke-linecap:round; stroke-width:0.25; stroke-dasharray:3,3;"/>
<text x="30.000000" y="27.000000" font-family="Arial" font-size="7">freq</text>
<a xlink:href="sawtooth-0x7fa647fa82a0.svg">
<rect x="246.500000" y="35.000000" width="38.700000" height="24.000000" rx="0" ry="0" style="stroke:none;fill:#cccccc;"/>
<rect x="245.500000" y="34.000000" width="38.700000" height="24.000000" rx="0" ry="0" style="stroke:none;fill:#003366;"/>
</a>
<a xlink:href="sawtooth-0x7fa647fa82a0.svg">
<text x="264.850000" y="48.000000" font-family="Arial" font-size="7" text-anchor="middle" fill="#FFFFFF">sawtooth</text>
</a>
<circle cx="247.500000" cy="36.000000" r="1"/>
<line x1="242.500000" y1="45.000000" x2="245.500000" y2="46.000000"  transform="rotate(0.000000,245.500000,46.000000)" style="stroke: black; stroke-width:0.25;"/>
<line x1="242.500000" y1="47.000000" x2="245.500000" y2="46.000000"  transform="rotate(0.000000,245.500000,46.000000)" style="stroke: black; stroke-width:0.25;"/>
<a xlink:href="reverb-0x7fa64958e340.svg">
<rect x="314.200000" y="35.000000" width="25.800000" height="24.000000" rx="0" ry="0" style="stroke:none;fill:#cccccc;"/>
<rect x="313.200000" y="34.000000" width="25.800000" height="24.000000" rx="0" ry="0" style="stroke:none;fill:#003366;"/>
</a>
<a xlink:href="reverb-0x7fa64958e340.svg">
<text x="326.100000" y="48.000000" font-family="Arial" font-size="7" text-anchor="middle" fill="#FFFFFF">reverb</text>
</a>
<circle cx="315.200000" cy="36.000000" r="1"/>
<line x1="310.200000" y1="41.000000" x2="313.200000" y2="42.000000"  transform="rotate(0.000000,313.200000,42.000000)" style="stroke: black; stroke-width:0.25;"/>
<line x1="310.200000" y1="43.000000" x2="313.200000" y2="42.000000"  transform="rotate(0.000000,313.200000,42.000000)" style="stroke: black; stroke-width:0.25;"/>
<line x1="310.200000" y1="49.000000" x2="313.200000" y2="50.000000"  transform="rotate(0.000000,313.200000,50.000000)" style="stroke: black; stroke-width:0.25;"/>
<line x1="310.200000" y1="51.000000" x2="313.200000" y2="50.000000"  transform="rotate(0.000000,313.200000,50.000000)" style="stroke: black; stroke-width:0.25;"/>
<line x1="15.000000" y1="15.000000" x2="15.000000" y2="77.000000"  style="stroke: black; stroke-linecap:round; stroke-width:0.25; stroke-dasharray:3,3;"/>
<line x1="15.000000" y1="77.000000" x2="356.000000" y2="77.000000"  style="stroke: black; stroke-linecap:round; stroke-width:0.25; stroke-dasharray:3,3;"/>
<line x1="356.000000" y1="77.000000" x2="356.000000" y2="15.000000"  style="stroke: black; stroke-linecap:round; stroke-width:0.25; stroke-dasharray:3,3;"/>
<line x1="15.000000" y1="15.000000" x2="20.000000" y2="15.000000"  style="stroke: black; stroke-linecap:round; stroke-width:0.25; stroke-dasharray:3,3;"/>
<line x1="49.025000" y1="15.000000" x2="356.000000" y2="15.000000"  style="stroke: black; stroke-linecap:round; stroke-width:0.25; stroke-dasharray:3,3;"/>
<text x="20.000000" y="17.000000" font-family="Arial" font-size="7">process</text>
<line x1="358.000000" y1="41.000000" x2="361.000000" y2="42.000000"  transform="rotate(0.000000,361.000000,42.000000)" style="stroke: black; stroke-width:0.25;"/>
<line x1="358.000000" y1="43.000000" x2="361.000000" y2="42.000000"  transform="rotate(0.000000,361.000000,42.000000)" style="stroke: black; stroke-width:0.25;"/>
<line x1="358.000000" y1="49.000000" x2="361.000000" y2="50.000000"  transform="rotate(0.000000,361.000000,50.000000)" style="stroke: black; stroke-width:0.25;"/>
<line x1="358.000000" y1="51.000000" x2="361.000000" y2="50.000000"  transform="rotate(0.000000,361.000000,50.000000)" style="stroke: black; stroke-width:0.25;"/>
<line x1="227.500000" y1="46.000000" x2="231.500000" y2="46.000000"  style="stroke:black; stroke-linecap:round; stroke-width:0.25;"/>
<line x1="231.500000" y1="46.000000" x2="241.500000" y2="46.000000"  style="stroke:black; stroke-linecap:round; stroke-width:0.25;"/>
<line x1="241.500000" y1="46.000000" x2="241.500000" y2="46.000000"  style="stroke:black; stroke-linecap:round; stroke-width:0.25;"/>
<line x1="241.500000" y1="46.000000" x2="245.500000" y2="46.000000"  style="stroke:black; stroke-linecap:round; stroke-width:0.25;"/>
<line x1="284.200000" y1="46.000000" x2="288.200000" y2="46.000000"  style="stroke:black; stroke-linecap:round; stroke-width:0.25;"/>
<line x1="288.200000" y1="46.000000" x2="309.200000" y2="42.000000"  style="stroke:black; stroke-linecap:round; stroke-width:0.25;"/>
<line x1="288.200000" y1="46.000000" x2="309.200000" y2="50.000000"  style="stroke:black; stroke-linecap:round; stroke-width:0.25;"/>
<line x1="309.200000" y1="42.000000" x2="313.200000" y2="42.000000"  style="stroke:black; stroke-linecap:round; stroke-width:0.25;"/>
<line x1="309.200000" y1="50.000000" x2="313.200000" y2="50.000000"  style="stroke:black; stroke-linecap:round; stroke-width:0.25;"/>
<line x1="339.000000" y1="42.000000" x2="343.000000" y2="42.000000"  style="stroke:black; stroke-linecap:round; stroke-width:0.25;"/>
<line x1="339.000000" y1="50.000000" x2="343.000000" y2="50.000000"  style="stroke:black; stroke-linecap:round; stroke-width:0.25;"/>
<line x1="343.000000" y1="42.000000" x2="343.000000" y2="42.000000"  style="stroke:black; stroke-linecap:round; stroke-width:0.25;"/>
<line x1="343.000000" y1="42.000000" x2="347.000000" y2="42.000000"  style="stroke:black; stroke-linecap:round; stroke-width:0.25;"/>
<line x1="343.000000" y1="50.000000" x2="343.000000" y2="50.000000"  style="stroke:black; stroke-linecap:round; stroke-width:0.25;"/>
<line x1="343.000000" y1="50.000000" x2="347.000000" y2="50.000000"  style="stroke:black; stroke-linecap:round; stroke-width:0.25;"/>
<line x1="347.000000" y1="42.000000" x2="351.000000" y2="42.000000"  style="stroke:black; stroke-linecap:round; stroke-width:0.25;"/>
<line x1="347.000000" y1="50.000000" x2="351.000000" y2="50.000000"  style="stroke:black; stroke-linecap:round; stroke-width:0.25;"/>
<line x1="351.000000" y1="42.000000" x2="361.000000" y2="42.000000"  style="stroke:black; stroke-linecap:round; stroke-width:0.25;"/>
<line x1="351.000000" y1="50.000000" x2="361.000000" y2="50.000000"  style="stroke:black; stroke-linecap:round; stroke-width:0.25;"/>
</svg>
