<?xml version="1.0"?>
<svg xmlns="http://www.w3.org/2000/svg" xmlns:xlink="http://www.w3.org/1999/xlink" viewBox="0 0 267.800000 136.000000" width="133.900000mm" height="68.000000mm" version="1.1">
<a xlink:href="process.svg">
<rect x="1.000000" y="1.000000" width="266.800000" height="135.000000" rx="0" ry="0" style="stroke:none;fill:#cccccc;"/>
<rect x="0.000000" y="0.000000" width="266.800000" height="135.000000" rx="0" ry="0" style="stroke:none;fill:#ffffff;"/>
</a>
<text x="10.000000" y="7.000000" font-family="Arial" font-size="7"></text>
<line x1="65.000000" y1="59.000000" x2="65.000000" y2="109.000000"  style="stroke: black; stroke-linecap:round; stroke-width:0.25; stroke-dasharray:3,3;"/>
<line x1="65.000000" y1="109.000000" x2="113.000000" y2="109.000000"  style="stroke: black; stroke-linecap:round; stroke-width:0.25; stroke-dasharray:3,3;"/>
<line x1="113.000000" y1="109.000000" x2="113.000000" y2="59.000000"  style="stroke: black; stroke-linecap:round; stroke-width:0.25; stroke-dasharray:3,3;"/>
<line x1="65.000000" y1="59.000000" x2="70.000000" y2="59.000000"  style="stroke: black; stroke-linecap:round; stroke-width:0.25; stroke-dasharray:3,3;"/>
<line x1="102.250000" y1="59.000000" x2="113.000000" y2="59.000000"  style="stroke: black; stroke-linecap:round; stroke-width:0.25; stroke-dasharray:3,3;"/>
<text x="70.000000" y="61.000000" font-family="Arial" font-size="7">route_in</text>
<rect x="139.000000" y="57.000000" width="24.000000" height="24.000000" rx="0" ry="0" style="stroke:none;fill:#cccccc;"/>
<rect x="138.000000" y="56.000000" width="24.000000" height="24.000000" rx="0" ry="0" style="stroke:none;fill:#4B71A1;"/>
<text x="150.000000" y="70.000000" font-family="Arial" font-size="7" text-anchor="middle" fill="#FFFFFF">+</text>
<circle cx="140.000000" cy="58.000000" r="1"/>
<line x1="135.000000" y1="63.000000" x2="138.000000" y2="64.000000"  transform="rotate(0.000000,138.000000,64.000000)" style="stroke: black; stroke-width:0.25;"/>
<line x1="135.000000" y1="65.000000" x2="138.000000" y2="64.000000"  transform="rotate(0.000000,138.000000,64.000000)" style="stroke: black; stroke-width:0.25;"/>
<line x1="135.000000" y1="71.000000" x2="138.000000" y2="72.000000"  transform="rotate(0.000000,138.000000,72.000000)" style="stroke: black; stroke-width:0.25;"/>
<line x1="135.000000" y1="73.000000" x2="138.000000" y2="72.000000"  transform="rotate(0.000000,138.000000,72.000000)" style="stroke: black; stroke-width:0.25;"/>
<rect x="139.000000" y="89.000000" width="24.000000" height="24.000000" rx="0" ry="0" style="stroke:none;fill:#cccccc;"/>
<rect x="138.000000" y="88.000000" width="24.000000" height="24.000000" rx="0" ry="0" style="stroke:none;fill:#4B71A1;"/>
<text x="150.000000" y="102.000000" font-family="Arial" font-size="7" text-anchor="middle" fill="#FFFFFF">+</text>
<circle cx="140.000000" cy="90.000000" r="1"/>
<line x1="135.000000" y1="95.000000" x2="138.000000" y2="96.000000"  transform="rotate(0.000000,138.000000,96.000000)" style="stroke: black; stroke-width:0.25;"/>
<line x1="135.000000" y1="97.000000" x2="138.000000" y2="96.000000"  transform="rotate(0.000000,138.000000,96.000000)" style="stroke: black; stroke-width:0.25;"/>
<line x1="135.000000" y1="103.000000" x2="138.000000" y2="104.000000"  transform="rotate(0.000000,138.000000,104.000000)" style="stroke: black; stroke-width:0.25;"/>
<line x1="135.000000" y1="105.000000" x2="138.000000" y2="104.000000"  transform="rotate(0.000000,138.000000,104.000000)" style="stroke: black; stroke-width:0.25;"/>
<a xlink:href="core-0x7fa649576ca0.svg">
<rect x="179.000000" y="73.000000" width="25.800000" height="24.000000" rx="0" ry="0" style="stroke:none;fill:#cccccc;"/>
<rect x="178.000000" y="72.000000" width="25.800000" height="24.000000" rx="0" ry="0" style="stroke:none;fill:#003366;"/>
</a>
<a xlink:href="core-0x7fa649576ca0.svg">
<text x="190.900000" y="86.000000" font-family="Arial" font-size="7" text-anchor="middle" fill="#FFFFFF">core</text>
</a>
<circle cx="180.000000" cy="74.000000" r="1"/>
<line x1="175.000000" y1="79.000000" x2="178.000000" y2="80.000000"  transform="rotate(0.000000,178.000000,80.000000)" style="stroke: black; stroke-width:0.25;"/>
<line x1="175.000000" y1="81.000000" x2="178.000000" y2="80.000000"  transform="rotate(0.000000,178.000000,80.000000)" style="stroke: black; stroke-width:0.25;"/>
<line x1="175.000000" y1="87.000000" x2="178.000000" y2="88.000000"  transform="rotate(0.000000,178.000000,88.000000)" style="stroke: black; stroke-width:0.25;"/>
<line x1="175.000000" y1="89.000000" x2="178.000000" y2="88.000000"  transform="rotate(0.000000,178.000000,88.000000)" style="stroke: black; stroke-width:0.25;"/>
<a xlink:href="fb-0x7fa64958e230.svg">
<rect x="122.900000" y="25.000000" width="24.000000" height="24.000000" rx="0" ry="0" style="stroke:none;fill:#cccccc;"/>
<rect x="121.900000" y="24.000000" width="24.000000" height="24.000000" rx="0" ry="0" style="stroke:none;fill:#003366;"/>
</a>
<a xlink:href="fb-0x7fa64958e230.svg">
<text x="133.900000" y="38.000000" font-family="Arial" font-size="7" text-anchor="middle" fill="#FFFFFF">fb</text>
</a>
<circle cx="143.900000" cy="46.000000" r="1"/>
<line x1="148.900000" y1="39.000000" x2="145.900000" y2="40.000000"  transform="rotate(0.000000,145.900000,40.000000)" style="stroke: black; stroke-width:0.25;"/>
<line x1="148.900000" y1="41.000000" x2="145.900000" y2="40.000000"  transform="rotate(0.000000,145.900000,40.000000)" style="stroke: black; stroke-width:0.25;"/>
<line x1="148.900000" y1="31.000000" x2="145.900000" y2="32.000000"  transform="rotate(0.000000,145.900000,32.000000)" style="stroke: black; stroke-width:0.25;"/>
<line x1="148.900000" y1="33.000000" x2="145.900000" y2="32.000000"  transform="rotate(0.000000,145.900000,32.000000)" style="stroke: black; stroke-width:0.25;"/>
<line x1="205.800000" y1="80.000000" x2="205.800000" y2="76.000000"  style="stroke:black; stroke-linecap:round; stroke-width:0.25;"/>
<line x1="205.800000" y1="76.000000" x2="209.800000" y2="76.000000"  style="stroke:black; stroke-linecap:round; stroke-width:0.25;"/>
<line x1="209.800000" y1="76.000000" x2="209.800000" y2="80.000000"  style="stroke:black; stroke-linecap:round; stroke-width:0.25;"/>
<line x1="213.800000" y1="88.000000" x2="213.800000" y2="84.000000"  style="stroke:black; stroke-linecap:round; stroke-width:0.25;"/>
<line x1="213.800000" y1="84.000000" x2="217.800000" y2="84.000000"  style="stroke:black; stroke-linecap:round; stroke-width:0.25;"/>
<line x1="217.800000" y1="84.000000" x2="217.800000" y2="88.000000"  style="stroke:black; stroke-linecap:round; stroke-width:0.25;"/>
<line x1="15.000000" y1="15.000000" x2="15.000000" y2="121.000000"  style="stroke: black; stroke-linecap:round; stroke-width:0.25; stroke-dasharray:3,3;"/>
<line x1="15.000000" y1="121.000000" x2="252.800000" y2="121.000000"  style="stroke: black; stroke-linecap:round; stroke-width:0.25; stroke-dasharray:3,3;"/>
<line x1="252.800000" y1="121.000000" x2="252.800000" y2="15.000000"  style="stroke: black; stroke-linecap:round; stroke-width:0.25; stroke-dasharray:3,3;"/>
<line x1="15.000000" y1="15.000000" x2="20.000000" y2="15.000000"  style="stroke: black; stroke-linecap:round; stroke-width:0.25; stroke-dasharray:3,3;"/>
<line x1="45.800000" y1="15.000000" x2="252.800000" y2="15.000000"  style="stroke: black; stroke-linecap:round; stroke-width:0.25; stroke-dasharray:3,3;"/>
<text x="20.000000" y="17.000000" font-family="Arial" font-size="7">reverb</text>
<line x1="254.800000" y1="63.000000" x2="257.800000" y2="64.000000"  transform="rotate(0.000000,257.800000,64.000000)" style="stroke: black; stroke-width:0.25;"/>
<line x1="254.800000" y1="65.000000" x2="257.800000" y2="64.000000"  transform="rotate(0.000000,257.800000,64.000000)" style="stroke: black; stroke-width:0.25;"/>
<line x1="254.800000" y1="71.000000" x2="257.800000" y2="72.000000"  transform="rotate(0.000000,257.800000,72.000000)" style="stroke: black; stroke-width:0.25;"/>
<line x1="254.800000" y1="73.000000" x2="257.800000" y2="72.000000"  transform="rotate(0.000000,257.800000,72.000000)" style="stroke: black; stroke-width:0.25;"/>
<line x1="10.000000" y1="64.000000" x2="20.000000" y2="64.000000"  style="stroke:black; stroke-linecap:round; stroke-width:0.25;"/>
<line x1="10.000000" y1="72.000000" x2="20.000000" y2="72.000000"  style="stroke:black; stroke-linecap:round; stroke-width:0.25;"/>
<line x1="20.000000" y1="64.000000" x2="24.000000" y2="64.000000"  style="stroke:black; stroke-linecap:round; stroke-width:0.25;"/>
<line x1="20.000000" y1="72.000000" x2="24.000000" y2="72.000000"  style="stroke:black; stroke-linecap:round; stroke-width:0.25;"/>
<line x1="24.000000" y1="64.000000" x2="28.000000" y2="64.000000"  style="stroke:black; stroke-linecap:round; stroke-width:0.25;"/>
<line x1="24.000000" y1="72.000000" x2="28.000000" y2="72.000000"  style="stroke:black; stroke-linecap:round; stroke-width:0.25;"/>
<line x1="28.000000" y1="64.000000" x2="44.000000" y2="64.000000"  style="stroke:black; stroke-linecap:round; stroke-width:0.25;"/>
<line x1="28.000000" y1="72.000000" x2="36.000000" y2="72.000000"  style="stroke:black; stroke-linecap:round; stroke-width:0.25;"/>
<line x1="36.000000" y1="72.000000" x2="36.000000" y2="96.000000"  style="stroke:black; stroke-linecap:round; stroke-width:0.25;"/>
<line x1="36.000000" y1="96.000000" x2="44.000000" y2="96.000000"  style="stroke:black; stroke-linecap:round; stroke-width:0.25;"/>
<line x1="44.000000" y1="64.000000" x2="44.000000" y2="88.000000"  style="stroke:black; stroke-linecap:round; stroke-width:0.25;"/>
<line x1="44.000000" y1="88.000000" x2="44.000000" y2="88.000000"  style="stroke:black; stroke-linecap:round; stroke-width:0.25;"/>
<line x1="44.000000" y1="88.000000" x2="60.000000" y2="88.000000"  style="stroke:black; stroke-linecap:round; stroke-width:0.25;"/>
<line x1="44.000000" y1="96.000000" x2="60.000000" y2="96.000000"  style="stroke:black; stroke-linecap:round; stroke-width:0.25;"/>
<line x1="52.000000" y1="32.000000" x2="52.000000" y2="80.000000"  style="stroke:black; stroke-linecap:round; stroke-width:0.25;"/>
<line x1="52.000000" y1="80.000000" x2="60.000000" y2="80.000000"  style="stroke:black; stroke-linecap:round; stroke-width:0.25;"/>
<line x1="60.000000" y1="32.000000" x2="52.000000" y2="32.000000"  style="stroke:black; stroke-linecap:round; stroke-width:0.25;"/>
<line x1="60.000000" y1="40.000000" x2="60.000000" y2="40.000000"  style="stroke:black; stroke-linecap:round; stroke-width:0.25;"/>
<line x1="60.000000" y1="40.000000" x2="60.000000" y2="72.000000"  style="stroke:black; stroke-linecap:round; stroke-width:0.25;"/>
<line x1="60.000000" y1="72.000000" x2="60.000000" y2="72.000000"  style="stroke:black; stroke-linecap:round; stroke-width:0.25;"/>
<line x1="60.000000" y1="72.000000" x2="70.000000" y2="72.000000"  style="stroke:black; stroke-linecap:round; stroke-width:0.25;"/>
<line x1="60.000000" y1="80.000000" x2="70.000000" y2="80.000000"  style="stroke:black; stroke-linecap:round; stroke-width:0.25;"/>
<line x1="60.000000" y1="88.000000" x2="70.000000" y2="88.000000"  style="stroke:black; stroke-linecap:round; stroke-width:0.25;"/>
<line x1="60.000000" y1="96.000000" x2="70.000000" y2="96.000000"  style="stroke:black; stroke-linecap:round; stroke-width:0.25;"/>
<line x1="70.000000" y1="72.000000" x2="74.000000" y2="72.000000"  style="stroke:black; stroke-linecap:round; stroke-width:0.25;"/>
<line x1="70.000000" y1="80.000000" x2="74.000000" y2="80.000000"  style="stroke:black; stroke-linecap:round; stroke-width:0.25;"/>
<line x1="70.000000" y1="88.000000" x2="74.000000" y2="88.000000"  style="stroke:black; stroke-linecap:round; stroke-width:0.25;"/>
<line x1="70.000000" y1="96.000000" x2="74.000000" y2="96.000000"  style="stroke:black; stroke-linecap:round; stroke-width:0.25;"/>
<line x1="74.000000" y1="72.000000" x2="104.000000" y2="88.000000"  style="stroke:black; stroke-linecap:round; stroke-width:0.25;"/>
<line x1="74.000000" y1="80.000000" x2="104.000000" y2="80.000000"  style="stroke:black; stroke-linecap:round; stroke-width:0.25;"/>
<line x1="74.000000" y1="88.000000" x2="104.000000" y2="72.000000"  style="stroke:black; stroke-linecap:round; stroke-width:0.25;"/>
<line x1="74.000000" y1="96.000000" x2="104.000000" y2="96.000000"  style="stroke:black; stroke-linecap:round; stroke-width:0.25;"/>
<line x1="104.000000" y1="72.000000" x2="108.000000" y2="72.000000"  style="stroke:black; stroke-linecap:round; stroke-width:0.25;"/>
<line x1="104.000000" y1="80.000000" x2="108.000000" y2="80.000000"  style="stroke:black; stroke-linecap:round; stroke-width:0.25;"/>
<line x1="104.000000" y1="88.000000" x2="108.000000" y2="88.000000"  style="stroke:black; stroke-linecap:round; stroke-width:0.25;"/>
<line x1="104.000000" y1="96.000000" x2="108.000000" y2="96.000000"  style="stroke:black; stroke-linecap:round; stroke-width:0.25;"/>
<line x1="108.000000" y1="72.000000" x2="118.000000" y2="72.000000"  style="stroke:black; stroke-linecap:round; stroke-width:0.25;"/>
<line x1="108.000000" y1="80.000000" x2="118.000000" y2="80.000000"  style="stroke:black; stroke-linecap:round; stroke-width:0.25;"/>
<line x1="108.000000" y1="88.000000" x2="118.000000" y2="88.000000"  style="stroke:black; stroke-linecap:round; stroke-width:0.25;"/>
<line x1="108.000000" y1="96.000000" x2="118.000000" y2="96.000000"  style="stroke:black; stroke-linecap:round; stroke-width:0.25;"/>
<line x1="117.900000" y1="32.000000" x2="60.000000" y2="32.000000"  style="stroke:black; stroke-linecap:round; stroke-width:0.25;"/>
<line x1="117.900000" y1="40.000000" x2="60.000000" y2="40.000000"  style="stroke:black; stroke-linecap:round; stroke-width:0.25;"/>
<line x1="118.000000" y1="64.000000" x2="134.000000" y2="64.000000"  style="stroke:black; stroke-linecap:round; stroke-width:0.25;"/>
<line x1="118.000000" y1="72.000000" x2="118.000000" y2="64.000000"  style="stroke:black; stroke-linecap:round; stroke-width:0.25;"/>
<line x1="118.000000" y1="72.000000" x2="118.000000" y2="72.000000"  style="stroke:black; stroke-linecap:round; stroke-width:0.25;"/>
<line x1="118.000000" y1="80.000000" x2="126.000000" y2="80.000000"  style="stroke:black; stroke-linecap:round; stroke-width:0.25;"/>
<line x1="118.000000" y1="88.000000" x2="134.000000" y2="88.000000"  style="stroke:black; stroke-linecap:round; stroke-width:0.25;"/>
<line x1="118.000000" y1="96.000000" x2="126.000000" y2="96.000000"  style="stroke:black; stroke-linecap:round; stroke-width:0.25;"/>
<line x1="121.900000" y1="32.000000" x2="117.900000" y2="32.000000"  style="stroke:black; stroke-linecap:round; stroke-width:0.25;"/>
<line x1="121.900000" y1="40.000000" x2="117.900000" y2="40.000000"  style="stroke:black; stroke-linecap:round; stroke-width:0.25;"/>
<line x1="126.000000" y1="72.000000" x2="134.000000" y2="72.000000"  style="stroke:black; stroke-linecap:round; stroke-width:0.25;"/>
<line x1="126.000000" y1="80.000000" x2="126.000000" y2="72.000000"  style="stroke:black; stroke-linecap:round; stroke-width:0.25;"/>
<line x1="126.000000" y1="96.000000" x2="126.000000" y2="104.000000"  style="stroke:black; stroke-linecap:round; stroke-width:0.25;"/>
<line x1="126.000000" y1="104.000000" x2="134.000000" y2="104.000000"  style="stroke:black; stroke-linecap:round; stroke-width:0.25;"/>
<line x1="134.000000" y1="64.000000" x2="138.000000" y2="64.000000"  style="stroke:black; stroke-linecap:round; stroke-width:0.25;"/>
<line x1="134.000000" y1="72.000000" x2="138.000000" y2="72.000000"  style="stroke:black; stroke-linecap:round; stroke-width:0.25;"/>
<line x1="134.000000" y1="88.000000" x2="134.000000" y2="96.000000"  style="stroke:black; stroke-linecap:round; stroke-width:0.25;"/>
<line x1="134.000000" y1="96.000000" x2="134.000000" y2="96.000000"  style="stroke:black; stroke-linecap:round; stroke-width:0.25;"/>
<line x1="134.000000" y1="96.000000" x2="138.000000" y2="96.000000"  style="stroke:black; stroke-linecap:round; stroke-width:0.25;"/>
<line x1="134.000000" y1="104.000000" x2="138.000000" y2="104.000000"  style="stroke:black; stroke-linecap:round; stroke-width:0.25;"/>
<line x1="149.900000" y1="32.000000" x2="145.900000" y2="32.000000"  style="stroke:black; stroke-linecap:round; stroke-width:0.25;"/>
<line x1="149.900000" y1="40.000000" x2="145.900000" y2="40.000000"  style="stroke:black; stroke-linecap:round; stroke-width:0.25;"/>
<line x1="162.000000" y1="68.000000" x2="166.000000" y2="68.000000"  style="stroke:black; stroke-linecap:round; stroke-width:0.25;"/>
<line x1="162.000000" y1="100.000000" x2="166.000000" y2="100.000000"  style="stroke:black; stroke-linecap:round; stroke-width:0.25;"/>
<line x1="166.000000" y1="68.000000" x2="174.000000" y2="68.000000"  style="stroke:black; stroke-linecap:round; stroke-width:0.25;"/>
<line x1="166.000000" y1="88.000000" x2="174.000000" y2="88.000000"  style="stroke:black; stroke-linecap:round; stroke-width:0.25;"/>
<line x1="166.000000" y1="100.000000" x2="166.000000" y2="88.000000"  style="stroke:black; stroke-linecap:round; stroke-width:0.25;"/>
<line x1="166.000000" y1="100.000000" x2="166.000000" y2="100.000000"  style="stroke:black; stroke-linecap:round; stroke-width:0.25;"/>
<line x1="174.000000" y1="68.000000" x2="174.000000" y2="80.000000"  style="stroke:black; stroke-linecap:round; stroke-width:0.25;"/>
<line x1="174.000000" y1="80.000000" x2="174.000000" y2="80.000000"  style="stroke:black; stroke-linecap:round; stroke-width:0.25;"/>
<line x1="174.000000" y1="80.000000" x2="178.000000" y2="80.000000"  style="stroke:black; stroke-linecap:round; stroke-width:0.25;"/>
<line x1="174.000000" y1="88.000000" x2="178.000000" y2="88.000000"  style="stroke:black; stroke-linecap:round; stroke-width:0.25;"/>
<line x1="203.800000" y1="80.000000" x2="207.800000" y2="80.000000"  style="stroke:black; stroke-linecap:round; stroke-width:0.25;"/>
<line x1="203.800000" y1="88.000000" x2="207.800000" y2="88.000000"  style="stroke:black; stroke-linecap:round; stroke-width:0.25;"/>
<line x1="207.800000" y1="32.000000" x2="149.900000" y2="32.000000"  style="stroke:black; stroke-linecap:round; stroke-width:0.25;"/>
<line x1="207.800000" y1="40.000000" x2="149.900000" y2="40.000000"  style="stroke:black; stroke-linecap:round; stroke-width:0.25;"/>
<line x1="207.800000" y1="40.000000" x2="207.800000" y2="40.000000"  style="stroke:black; stroke-linecap:round; stroke-width:0.25;"/>
<line x1="207.800000" y1="76.000000" x2="207.800000" y2="40.000000"  style="stroke:black; stroke-linecap:round; stroke-width:0.25;"/>
<line x1="207.800000" y1="80.000000" x2="209.800000" y2="80.000000"  style="stroke:black; stroke-linecap:round; stroke-width:0.25;"/>
<line x1="207.800000" y1="88.000000" x2="217.800000" y2="88.000000"  style="stroke:black; stroke-linecap:round; stroke-width:0.25;"/>
<line x1="209.800000" y1="80.000000" x2="223.800000" y2="80.000000"  style="stroke:black; stroke-linecap:round; stroke-width:0.25;"/>
<line x1="215.800000" y1="32.000000" x2="207.800000" y2="32.000000"  style="stroke:black; stroke-linecap:round; stroke-width:0.25;"/>
<line x1="215.800000" y1="84.000000" x2="215.800000" y2="32.000000"  style="stroke:black; stroke-linecap:round; stroke-width:0.25;"/>
<line x1="217.800000" y1="88.000000" x2="223.800000" y2="88.000000"  style="stroke:black; stroke-linecap:round; stroke-width:0.25;"/>
<line x1="223.800000" y1="64.000000" x2="239.800000" y2="64.000000"  style="stroke:black; stroke-linecap:round; stroke-width:0.25;"/>
<line x1="223.800000" y1="80.000000" x2="223.800000" y2="64.000000"  style="stroke:black; stroke-linecap:round; stroke-width:0.25;"/>
<line x1="223.800000" y1="80.000000" x2="223.800000" y2="80.000000"  style="stroke:black; stroke-linecap:round; stroke-width:0.25;"/>
<line x1="223.800000" y1="88.000000" x2="231.800000" y2="88.000000"  style="stroke:black; stroke-linecap:round; stroke-width:0.25;"/>
<line x1="231.800000" y1="72.000000" x2="239.800000" y2="72.000000"  style="stroke:black; stroke-linecap:round; stroke-width:0.25;"/>
<line x1="231.800000" y1="88.000000" x2="231.800000" y2="72.000000"  style="stroke:black; stroke-linecap:round; stroke-width:0.25;"/>
<line x1="239.800000" y1="64.000000" x2="243.800000" y2="64.000000"  style="stroke:black; stroke-linecap:round; stroke-width:0.25;"/>
<line x1="239.800000" y1="72.000000" x2="243.800000" y2="72.000000"  style="stroke:black; stroke-linecap:round; stroke-width:0.25;"/>
<line x1="243.800000" y1="64.000000" x2="247.800000" y2="64.000000"  style="stroke:black; stroke-linecap:round; stroke-width:0.25;"/>
<line x1="243.800000" y1="72.000000" x2="247.800000" y2="72.000000"  style="stroke:black; stroke-linecap:round; stroke-width:0.25;"/>
<line x1="247.800000" y1="64.000000" x2="257.800000" y2="64.000000"  style="stroke:black; stroke-linecap:round; stroke-width:0.25;"/>
<line x1="247.800000" y1="72.000000" x2="257.800000" y2="72.000000"  style="stroke:black; stroke-linecap:round; stroke-width:0.25;"/>
</svg>
